<svg xmlns="http://www.w3.org/2000/svg" version="1.1" xmlns:xlink="http://www.w3.org/1999/xlink" xmlns:svgjs="http://svgjs.dev/svgjs" width="1440" height="560" preserveAspectRatio="none" viewBox="0 0 1440 560"><g mask="url(&quot;#SvgjsMask1000&quot;)" fill="none"><rect width="1440" height="560" x="0" y="0" fill="#1e3266"></rect><path d="M1464 560L0 560 L0 301.16Q37.12 266.28, 72 303.4Q98.55 257.94, 144 284.49Q195.63 264.12, 216 315.74Q281.2 260.94, 336 326.15Q384.6 254.75, 456 303.35Q540.36 267.71, 576 352.06Q648.78 304.84, 696 377.62Q703.97 313.59, 768 321.56Q785.74 267.29, 840 285.03Q923.27 248.3, 960 331.57Q1037.76 289.33, 1080 367.09Q1110.54 277.63, 1200 308.17Q1270.05 258.22, 1320 328.26Q1367.58 303.84, 1392 351.41Q1397.33 284.74, 1464 290.07z" fill="#182f5d"></path><path d="M1464 560L0 560 L0 447.99Q7.49 383.48, 72 390.96Q141.31 340.27, 192 409.59Q267.43 365.01, 312 440.44Q333.69 342.13, 432 363.81Q508.5 320.31, 552 396.81Q581.48 354.29, 624 383.77Q652.25 340.02, 696 368.28Q754.89 355.17, 768 414.06Q773.59 347.65, 840 353.24Q909.15 302.39, 960 371.54Q1023.15 362.69, 1032 425.84Q1072.62 346.45, 1152 387.07Q1200.88 363.95, 1224 412.84Q1296.38 365.21, 1344 437.59Q1371.85 345.44, 1464 373.29z" fill="#25467d"></path><path d="M1536 560L0 560 L0 465.09Q22.05 415.13, 72 437.18Q154.46 399.64, 192 482.1Q199.86 417.96, 264 425.82Q338.47 428.29, 336 502.76Q365.81 412.57, 456 442.38Q529.61 395.99, 576 469.59Q655.63 429.22, 696 508.85Q723.49 464.34, 768 491.83Q776.33 428.16, 840 436.49Q881.02 405.51, 912 446.53Q981.95 396.48, 1032 466.42Q1080.73 443.15, 1104 491.89Q1121.08 436.97, 1176 454.05Q1223.66 381.71, 1296 429.37Q1388.15 401.52, 1416 493.68Q1458.57 416.25, 1536 458.81z" fill="#356cb1"></path><path d="M1512 560L0 560 L0 568.78Q17.84 514.62, 72 532.45Q94.78 483.23, 144 506.01Q232.21 474.22, 264 562.43Q312.67 539.1, 336 587.77Q352.38 532.15, 408 548.53Q454.59 475.12, 528 521.7Q593.1 466.8, 648 531.89Q688.56 452.45, 768 493.01Q858.64 463.65, 888 554.3Q962.67 508.97, 1008 583.64Q1010.13 513.76, 1080 515.89Q1132.88 448.76, 1200 501.64Q1297.98 479.62, 1320 577.6Q1348.91 486.51, 1440 515.42Q1487.14 490.57, 1512 537.71z" fill="white"></path></g><defs><mask id="SvgjsMask1000"><rect width="1440" height="560" fill="#ffffff"></rect></mask></defs></svg>